<svg xmlns="http://www.w3.org/2000/svg" xmlns:xlink="http://www.w3.org/1999/xlink" width="500" zoomAndPan="magnify" viewBox="0 0 375 374.999991" height="500" preserveAspectRatio="xMidYMid meet" version="1.2"><defs><clipPath id="f88a13dc08"><path d="M 99.769531 160 L 138 160 L 138 199 L 99.769531 199 Z M 99.769531 160 "/></clipPath><clipPath id="074aa19edc"><path d="M 130 146.441406 L 144.769531 146.441406 L 144.769531 163 L 130 163 Z M 130 146.441406 "/></clipPath></defs><g id="56c7a38044"><g style="fill:#012c18;fill-opacity:1;"><g transform="translate(61.526995, 217.304225)"><path style="stroke:none" d="M 8.359375 -47.65625 L 8.359375 -65.390625 L 24.796875 -65.390625 L 24.796875 -47.65625 L 34.828125 -47.65625 L 34.828125 -35.109375 L 24.796875 -35.109375 L 24.796875 -19.96875 C 24.796875 -15.570312 26.035156 -13.375 28.515625 -13.375 C 29.140625 -13.375 29.789062 -13.5 30.46875 -13.75 C 31.144531 -14 31.671875 -14.242188 32.046875 -14.484375 L 32.609375 -14.859375 L 36.6875 -1.578125 C 33.15625 0.398438 29.128906 1.390625 24.609375 1.390625 C 21.515625 1.390625 18.851562 0.847656 16.625 -0.234375 C 14.394531 -1.316406 12.707031 -2.769531 11.5625 -4.59375 C 10.414062 -6.425781 9.59375 -8.347656 9.09375 -10.359375 C 8.601562 -12.367188 8.359375 -14.519531 8.359375 -16.8125 L 8.359375 -35.109375 L 1.484375 -35.109375 L 1.484375 -47.65625 Z M 8.359375 -47.65625 "/></g></g><g style="fill:#2c3892;fill-opacity:1;"><g transform="translate(91.163712, 217.304225)"><path style="stroke:none" d=""/></g></g><g style="fill:#2c3892;fill-opacity:1;"><g transform="translate(109.461086, 217.304225)"><path style="stroke:none" d=""/></g></g><g style="fill:#2c3892;fill-opacity:1;"><g transform="translate(127.758459, 217.304225)"><path style="stroke:none" d=""/></g></g><g style="fill:#012c18;fill-opacity:1;"><g transform="translate(146.066052, 217.304225)"><path style="stroke:none" d="M 8.359375 -47.65625 L 8.359375 -65.390625 L 24.796875 -65.390625 L 24.796875 -47.65625 L 34.828125 -47.65625 L 34.828125 -35.109375 L 24.796875 -35.109375 L 24.796875 -19.96875 C 24.796875 -15.570312 26.035156 -13.375 28.515625 -13.375 C 29.140625 -13.375 29.789062 -13.5 30.46875 -13.75 C 31.144531 -14 31.671875 -14.242188 32.046875 -14.484375 L 32.609375 -14.859375 L 36.6875 -1.578125 C 33.15625 0.398438 29.128906 1.390625 24.609375 1.390625 C 21.515625 1.390625 18.851562 0.847656 16.625 -0.234375 C 14.394531 -1.316406 12.707031 -2.769531 11.5625 -4.59375 C 10.414062 -6.425781 9.59375 -8.347656 9.09375 -10.359375 C 8.601562 -12.367188 8.359375 -14.519531 8.359375 -16.8125 L 8.359375 -35.109375 L 1.484375 -35.109375 L 1.484375 -47.65625 Z M 8.359375 -47.65625 "/></g></g><g style="fill:#012c18;fill-opacity:1;"><g transform="translate(175.695113, 217.304225)"><path style="stroke:none" d="M 30.9375 -35.578125 C 27.832031 -35.578125 25.164062 -34.429688 22.9375 -32.140625 C 20.707031 -29.847656 19.59375 -27.09375 19.59375 -23.875 C 19.59375 -20.59375 20.707031 -17.804688 22.9375 -15.515625 C 25.164062 -13.222656 27.832031 -12.078125 30.9375 -12.078125 C 32.414062 -12.078125 33.820312 -12.257812 35.15625 -12.625 C 36.488281 -13 37.460938 -13.375 38.078125 -13.75 L 38.921875 -14.3125 L 44.5 -2.875 C 44.0625 -2.570312 43.453125 -2.1875 42.671875 -1.71875 C 41.898438 -1.25 40.132812 -0.613281 37.375 0.1875 C 34.625 0.988281 31.671875 1.390625 28.515625 1.390625 C 21.515625 1.390625 15.367188 -1.066406 10.078125 -5.984375 C 4.785156 -10.910156 2.140625 -16.8125 2.140625 -23.6875 C 2.140625 -30.625 4.785156 -36.582031 10.078125 -41.5625 C 15.367188 -46.550781 21.515625 -49.046875 28.515625 -49.046875 C 31.671875 -49.046875 34.582031 -48.671875 37.25 -47.921875 C 39.914062 -47.179688 41.804688 -46.441406 42.921875 -45.703125 L 44.5 -44.59375 L 38.921875 -33.34375 C 36.878906 -34.832031 34.21875 -35.578125 30.9375 -35.578125 Z M 30.9375 -35.578125 "/></g></g><g style="fill:#012c18;fill-opacity:1;"><g transform="translate(214.240917, 217.304225)"><path style="stroke:none" d="M 5.578125 0 L 5.578125 -79.890625 L 22.015625 -79.890625 L 22.015625 -42.640625 L 22.203125 -42.640625 C 26.472656 -46.910156 31.023438 -49.046875 35.859375 -49.046875 C 38.210938 -49.046875 40.550781 -48.734375 42.875 -48.109375 C 45.195312 -47.492188 47.425781 -46.535156 49.5625 -45.234375 C 51.695312 -43.929688 53.425781 -42.085938 54.75 -39.703125 C 56.082031 -37.328125 56.75 -34.554688 56.75 -31.390625 L 56.75 0 L 40.3125 0 L 40.3125 -26.9375 C 40.3125 -29.414062 39.519531 -31.582031 37.9375 -33.4375 C 36.363281 -35.300781 34.304688 -36.234375 31.765625 -36.234375 C 29.285156 -36.234375 27.039062 -35.269531 25.03125 -33.34375 C 23.019531 -31.425781 22.015625 -29.289062 22.015625 -26.9375 L 22.015625 0 Z M 5.578125 0 "/></g></g><g style="fill:#012c18;fill-opacity:1;"><g transform="translate(268.576798, 217.304225)"><path style="stroke:none" d="M 32.96875 -29.265625 L 32.96875 -22.578125 L 26.1875 -22.578125 C 16.84375 -22.578125 12.171875 -19.726562 12.171875 -14.03125 C 12.171875 -10.988281 13.4375 -8.847656 15.96875 -7.609375 C 18.507812 -6.378906 21.640625 -5.765625 25.359375 -5.765625 C 28.765625 -5.765625 31.796875 -6.164062 34.453125 -6.96875 C 37.117188 -7.769531 39.472656 -8.664062 41.515625 -9.65625 L 41.515625 -2.515625 C 39.597656 -1.453125 37.304688 -0.613281 34.640625 0 C 31.984375 0.613281 28.734375 0.921875 24.890625 0.921875 C 17.773438 0.921875 12.515625 -0.453125 9.109375 -3.203125 C 5.703125 -5.960938 4 -9.414062 4 -13.5625 C 4 -16.039062 4.507812 -18.066406 5.53125 -19.640625 C 6.550781 -21.222656 7.894531 -22.492188 9.5625 -23.453125 C 11.238281 -24.410156 13.066406 -25.171875 15.046875 -25.734375 L 15.046875 -26.1875 C 12.265625 -27.0625 10.019531 -28.410156 8.3125 -30.234375 C 6.613281 -32.054688 5.765625 -34.488281 5.765625 -37.53125 C 5.765625 -41.738281 7.539062 -44.988281 11.09375 -47.28125 C 14.65625 -49.570312 19.253906 -50.71875 24.890625 -50.71875 C 28.484375 -50.71875 31.566406 -50.40625 34.140625 -49.78125 C 36.710938 -49.164062 39.234375 -48.300781 41.703125 -47.1875 L 38.640625 -40.6875 C 36.597656 -41.613281 34.507812 -42.382812 32.375 -43 C 30.238281 -43.625 27.710938 -43.9375 24.796875 -43.9375 C 17.304688 -43.9375 13.5625 -41.582031 13.5625 -36.875 C 13.5625 -34.15625 14.84375 -32.207031 17.40625 -31.03125 C 19.976562 -29.851562 23.4375 -29.265625 27.78125 -29.265625 Z M 32.96875 -29.265625 "/></g></g><path style=" stroke:none;fill-rule:nonzero;fill:#ffaa1c;fill-opacity:1;" d="M 134.902344 186.191406 C 134.421875 187.261719 133.902344 188.269531 133.351562 189.226562 C 132.808594 191.957031 131.402344 194.871094 128.855469 197.792969 C 123.121094 204.378906 112.726562 204.605469 106.054688 201.808594 C 111.824219 211.105469 121.558594 218.722656 121.558594 218.722656 C 121.558594 218.722656 143.339844 201.679688 143.339844 184.253906 C 143.339844 179.261719 141.660156 174.664062 138.835938 170.996094 C 138.175781 176.78125 136.855469 181.886719 134.902344 186.191406 Z M 134.902344 186.191406 "/><g clip-rule="nonzero" clip-path="url(#f88a13dc08)"><path style=" stroke:none;fill-rule:nonzero;fill:#ffaa1c;fill-opacity:1;" d="M 116.503906 198.910156 C 119.929688 198.820312 123.132812 197.691406 125.960938 195.59375 C 127.472656 194.472656 128.878906 193.074219 130.15625 191.402344 C 131.433594 189.734375 132.582031 187.792969 133.574219 185.589844 C 135.558594 181.222656 136.933594 175.816406 137.535156 169.453125 C 137.804688 166.558594 137.917969 163.460938 137.851562 160.171875 C 137.1875 162.703125 136.457031 165.226562 135.65625 167.65625 C 134.304688 171.746094 132.742188 175.585938 130.945312 178.804688 C 128.171875 183.785156 124.835938 187.277344 120.847656 187.917969 C 110.796875 189.527344 110.175781 174.570312 120.914062 173.96875 C 124.199219 173.785156 127.507812 175.195312 129.925781 177.636719 C 131.453125 174.808594 132.914062 171.300781 134.273438 167.195312 C 134.328125 167.03125 134.386719 166.863281 134.441406 166.691406 C 130.832031 164.042969 126.378906 162.476562 121.558594 162.476562 C 109.53125 162.476562 99.78125 172.226562 99.78125 184.253906 C 99.78125 184.410156 99.78125 185.21875 99.824219 185.644531 C 100.832031 194.800781 107.980469 199.152344 116.503906 198.910156 Z M 116.503906 198.910156 "/></g><g clip-rule="nonzero" clip-path="url(#074aa19edc)"><path style=" stroke:none;fill-rule:nonzero;fill:#ffaa1c;fill-opacity:1;" d="M 138.054688 154.148438 L 139.777344 162.597656 L 144.757812 162.886719 L 138.5 146.441406 L 130.390625 162.054688 L 135.371094 162.34375 Z M 138.054688 154.148438 "/></g></g></svg>